<svg id="Layer_1" xmlns="http://www.w3.org/2000/svg" xmlns:xlink="http://www.w3.org/1999/xlink" viewBox="0 0 630 165" style="enable-background:new 0 0 630 165;"><style>.st0{fill:#FF7B10;}
.st1{fill:#FFFFFF;}</style><title>Logo / orange</title><desc>Created with Sketch.</desc><g id="Page-1"><g id="Main-Logo" transform="translate(-130.000000, -206.000000)"><g id="Logo-_x2F_-orange" transform="translate(130.000000, 206.000000)"><g id="Wordmark" transform="translate(211.666667, 56.666667)"><path id="Fill-1" class="st0" d="M1.4 30.7c0-17.8 13.2-30 29.7-30 11.4.0 18.5 5.5 23 12.2l-7.4 3.9c-3-4.9-8.8-8.4-15.6-8.4-11.7.0-20.8 9.2-20.8 22.2.0 12.9 9 22.2 20.8 22.2 6.9.0 12.6-3.6 15.6-8.4l7.4 3.9c-4.6 6.8-11.6 12.2-23 12.2C14.6 60.6 1.4 48.5 1.4 30.7"/><path id="Fill-3" class="st0" d="M93.1 38.6c0-7.9-4.6-15-13-15-8.3.0-13 7.1-13 15 0 8 4.7 15.1 13 15.1C88.5 53.7 93.1 46.6 93.1 38.6m-34.2.0c0-12.1 8.2-22 21.2-22 13.1.0 21.2 9.9 21.2 22 0 12.2-8.1 22.1-21.2 22.1C67 60.6 58.9 50.7 58.9 38.6"/><path id="Fill-5" class="st0" d="M139.8 29.7c-2.2-3.4-6.9-6.2-11.6-6.2-7.8.0-12.7 6.3-12.7 15.1.0 8.7 4.9 15 12.7 15 4.8.0 9.5-2.7 11.6-6.1V29.7zm0 23.9c-3.1 4.2-8.2 7-13.7 7-10.9.0-18.8-8.3-18.8-22 0-13.5 7.8-22.1 18.8-22.1 5.4.0 10.3 2.6 13.7 7.1V1.7h7.8v57.9h-7.8v-6z"/><path id="Fill-7" class="st0" d="M164.1 35.5h25.6C189.6 30 185.9 23 177 23 168.6 23 164.6 29.8 164.1 35.5M177 16.6c12.6.0 20.4 9.8 20.4 22.7v1.9h-33.2c.6 7.1 5.8 13 14.2 13 4.4.0 9.3-1.7 12.4-5l3.6 5.1c-4.2 4.1-10.1 6.3-16.9 6.3-12.5.0-21.7-8.9-21.7-22.1C156 26.4 164.8 16.6 177 16.6"/><polygon id="Fill-9" class="st0" points="230.9,27.4 220.6,59.6 212.5,59.6 199.3,17.6 207.4,17.6 217,49.6 227.5,17.6 234.3,17.6 244.8,49.6 254.3,17.6 262.5,17.6 249.3,59.6 241.2,59.6"/><path id="Fill-11" class="st0" d="M299 38.6c0-7.9-4.6-15-13-15-8.3.0-13 7.1-13 15 0 8 4.7 15.1 13 15.1C294.4 53.7 299 46.6 299 38.6m-34.2.0c0-12.1 8.2-22 21.2-22 13.1.0 21.2 9.9 21.2 22 0 12.2-8.1 22.1-21.2 22.1C272.9 60.6 264.8 50.7 264.8 38.6"/><path id="Fill-13" class="st0" d="M315.5 17.6h7.8V24c3.2-4.2 8.2-7.4 13.7-7.4v7.9c-.8-.2-1.6-.3-2.7-.3-3.9.0-9.2 3-11 6.1v29.2h-7.8V17.6z"/><polygon id="Fill-15" class="st0" points="357.2,41.5 350.9,48 350.9,59.6 343.1,59.6 343.1,1.7 350.9,1.7 350.9,38.9 371.1,17.6 380.9,17.6 362.9,36.7 381.1,59.6 371.2,59.6"/><path id="Fill-17" class="st0" d="M387.3 48.4c2.9 3.1 8.4 6 14.1 6 5.9.0 9-2.4 9-6 0-4.2-4.8-5.6-10.2-6.8-7.1-1.7-15.5-3.6-15.5-12.6.0-6.7 5.7-12.4 16-12.4 7.2.0 12.4 2.6 16 6l-3.5 5.5c-2.4-3-7.1-5.1-12.4-5.1-5.3.0-8.6 2.1-8.6 5.5.0 3.6 4.5 4.9 9.7 6.1 7.3 1.6 16 3.6 16 13.3.0 7.2-5.9 12.9-16.9 12.9-7 0-13.2-2.2-17.5-6.5L387.3 48.4z"/></g><g id="Symbol"><path id="Fill-19" class="st0" d="M164.7 82.3c0 45.5-36.9 82.3-82.3 82.3S0 127.8.0 82.3 36.9.0 82.3.0s82.4 36.9 82.4 82.3"/><path id="Fill-21" class="st1" d="M86 63.8l-3.7 9.1-3.7-9.1c0-.1-.1-.3-.1-.3-.2-.4-.2-.9-.2-1.4.0-2.2 1.8-4 4-4s4 1.8 4 4c0 .5-.1.9-.2 1.4C86.1 63.5 86.1 63.7 86 63.8zm29.9-5.7-19.8 48.7-9.6-23.5 6.7-16.6c.6-1.5 1-3.1 1-4.7.0-6.6-5.3-11.9-11.9-11.9-6.6.0-11.9 5.3-11.9 11.9.0 1.6.3 3.2.9 4.6l6.8 16.7-9.6 23.5L48.7 58.1h-8.4l22.6 55.4c.7 1.8 2.4 2.9 4.3 2.9h2.7c1.8.0 3.5-1.1 4.3-2.9l8.1-20 8.2 20.1c.7 1.7 2.4 2.8 4.2 2.8h2.7c1.9.0 3.6-1.1 4.3-2.9L124.3 58H115.9z"/></g></g></g></g></svg>